<svg xmlns="http://www.w3.org/2000/svg" xmlns:xlink="http://www.w3.org/1999/xlink" width="2000" zoomAndPan="magnify" viewBox="0 0 1500 1499.999933" height="2000" preserveAspectRatio="xMidYMid meet" version="1.0"><defs><g/><clipPath id="a32ce87301"><path d="M 252 159.316406 L 896 159.316406 L 896 821.566406 L 252 821.566406 Z M 252 159.316406 " clip-rule="nonzero"/></clipPath><clipPath id="cab6526bbb"><path d="M 458 359 L 1247.984375 359 L 1247.984375 622 L 458 622 Z M 458 359 " clip-rule="nonzero"/></clipPath><clipPath id="afbc3c4739"><rect x="0" width="1042" y="0" height="308"/></clipPath></defs><g clip-path="url(#a32ce87301)"><path fill="#ff1616" d="M 320.25 519.289062 C 319.191406 509.800781 318.605469 500.171875 318.605469 490.394531 C 318.605469 480.621094 319.199219 470.992188 320.25 461.503906 L 252.265625 426.914062 C 257.445312 400.230469 265.839844 374.703125 277.011719 350.730469 L 277.011719 350.722656 L 352.351562 362.707031 C 361.941406 345.859375 373.324219 330.160156 386.308594 315.945312 L 351.671875 248.078125 C 371.214844 229.871094 392.949219 214.011719 416.453125 200.925781 L 470.347656 254.886719 C 487.742188 246.980469 506.132812 240.882812 525.328125 236.96875 L 537.1875 161.765625 L 537.195312 161.757812 C 550.335938 160.175781 563.6875 159.253906 577.25 159.253906 C 590.824219 159.253906 604.175781 160.175781 617.308594 161.757812 C 617.316406 161.757812 617.324219 161.757812 617.324219 161.765625 L 629.183594 236.96875 C 648.378906 240.882812 666.769531 246.980469 684.164062 254.886719 L 738.050781 200.925781 C 761.5625 214.011719 783.296875 229.871094 802.835938 248.078125 L 768.195312 315.945312 C 781.1875 330.160156 792.570312 345.859375 802.160156 362.707031 L 877.492188 350.722656 L 877.5 350.722656 C 884.582031 365.925781 890.535156 381.746094 895.265625 398.082031 L 732.296875 398.082031 C 700.804688 345.308594 643.167969 309.953125 577.25 309.953125 C 477.597656 309.953125 396.8125 390.742188 396.8125 490.394531 C 396.8125 590.050781 477.597656 670.835938 577.25 670.835938 C 643.167969 670.835938 700.804688 635.480469 732.289062 582.707031 L 895.265625 582.707031 C 890.535156 599.046875 884.582031 614.867188 877.5 630.0625 L 877.492188 630.070312 L 802.160156 618.085938 C 792.570312 634.933594 781.1875 650.632812 768.199219 664.84375 L 802.835938 732.714844 C 783.296875 750.910156 761.5625 766.777344 738.050781 779.867188 L 684.15625 725.902344 C 666.769531 733.808594 648.378906 739.910156 629.183594 743.824219 L 617.324219 819.027344 C 617.324219 819.035156 617.316406 819.035156 617.308594 819.035156 C 604.175781 820.617188 590.824219 821.535156 577.25 821.535156 C 563.6875 821.535156 550.335938 820.617188 537.195312 819.035156 C 537.195312 819.035156 537.1875 819.035156 537.1875 819.035156 L 525.328125 743.824219 C 506.132812 739.910156 487.742188 733.808594 470.347656 725.902344 L 416.453125 779.867188 C 392.949219 766.777344 371.214844 750.917969 351.671875 732.714844 L 386.308594 664.84375 C 373.316406 650.632812 361.941406 634.933594 352.351562 618.085938 L 277.011719 630.0625 C 265.839844 606.089844 257.445312 580.5625 252.265625 553.878906 L 320.25 519.289062 " fill-opacity="1" fill-rule="nonzero"/></g><g clip-path="url(#cab6526bbb)"><path fill="#ff1616" d="M 1070.503906 485.910156 L 1107.171875 422.402344 C 1108.769531 419.625 1111.734375 417.917969 1114.929688 417.917969 L 1247.925781 417.917969 C 1224.4375 382.585938 1184.304688 359.277344 1138.703125 359.277344 C 1090.355469 359.277344 1048.21875 385.519531 1025.488281 424.472656 L 475.015625 424.472656 C 465.765625 424.472656 458.269531 431.96875 458.269531 441.210938 C 458.269531 450.460938 465.765625 457.960938 475.015625 457.960938 L 756.226562 457.960938 C 761.421875 457.960938 765.636719 462.175781 765.636719 467.371094 C 765.636719 472.574219 761.421875 476.792969 756.226562 476.792969 L 563.710938 476.792969 C 556.195312 476.792969 550.105469 482.882812 550.105469 490.394531 C 550.105469 497.910156 556.195312 504 563.710938 504 L 756.226562 504 C 761.421875 504 765.636719 508.214844 765.636719 513.421875 C 765.636719 518.617188 761.421875 522.832031 756.226562 522.832031 L 669.625 522.832031 C 660.375 522.832031 652.878906 530.328125 652.878906 539.578125 C 652.878906 548.820312 660.375 556.316406 669.625 556.316406 L 1025.488281 556.316406 C 1048.21875 595.269531 1090.355469 621.515625 1138.703125 621.515625 C 1184.304688 621.515625 1224.4375 598.203125 1247.925781 562.875 L 1114.929688 562.875 C 1111.734375 562.875 1108.769531 561.167969 1107.171875 558.386719 L 1070.503906 494.882812 C 1068.898438 492.101562 1068.898438 488.691406 1070.503906 485.910156 " fill-opacity="1" fill-rule="nonzero"/></g><g transform="matrix(1, 0, 0, 1, 238, 881)"><g clip-path="url(#afbc3c4739)"><g fill="#000000" fill-opacity="1"><g transform="translate(2.534342, 252.634808)"><g><path d="M 115.046875 -200.453125 L 115.046875 -174.875 C 115.046875 -172.144531 113.6875 -170.78125 110.96875 -170.78125 L 47.5625 -170.78125 L 47.5625 -119.40625 L 95.625 -119.40625 C 98.351562 -119.40625 99.71875 -118.039062 99.71875 -115.3125 L 99.71875 -89.734375 C 99.71875 -87.015625 98.351562 -85.65625 95.625 -85.65625 L 47.5625 -85.65625 L 47.5625 -4.09375 C 47.5625 -1.363281 46.195312 0 43.46875 0 L 16.875 0 C 14.144531 0 12.78125 -1.363281 12.78125 -4.09375 L 12.78125 -200.453125 C 12.78125 -203.171875 14.144531 -204.53125 16.875 -204.53125 L 110.96875 -204.53125 C 113.6875 -204.53125 115.046875 -203.171875 115.046875 -200.453125 Z M 115.046875 -200.453125 "/></g></g></g><g fill="#000000" fill-opacity="1"><g transform="translate(150.050334, 252.634808)"><g><path d="M 16.875 0 L 43.46875 0 C 46.195312 0 47.5625 -1.363281 47.5625 -4.09375 L 47.5625 -174.875 C 47.5625 -177.601562 46.195312 -178.96875 43.46875 -178.96875 L 16.875 -178.96875 C 14.144531 -178.96875 12.78125 -177.601562 12.78125 -174.875 L 12.78125 -4.09375 C 12.78125 -1.363281 14.144531 0 16.875 0 Z M 16.875 0 "/></g></g></g><g fill="#000000" fill-opacity="1"><g transform="translate(230.07403, 252.634808)"><g><path d="M 91.78125 -91.53125 L 134.734375 -6.140625 C 135.585938 -4.429688 135.671875 -2.976562 134.984375 -1.78125 C 134.304688 -0.59375 132.945312 0 130.90625 0 L 104.5625 0 C 101.84375 0 99.882812 -1.191406 98.6875 -3.578125 L 71.59375 -59.0625 L 44.484375 -3.578125 C 43.296875 -1.191406 41.335938 0 38.609375 0 L 12.265625 0 C 10.222656 0 8.859375 -0.59375 8.171875 -1.78125 C 7.492188 -2.976562 7.582031 -4.429688 8.4375 -6.140625 L 51.640625 -91.53125 L 11 -172.828125 C 10.144531 -174.535156 10.054688 -175.984375 10.734375 -177.171875 C 11.421875 -178.367188 12.785156 -178.96875 14.828125 -178.96875 L 41.15625 -178.96875 C 43.882812 -178.96875 45.847656 -177.773438 47.046875 -175.390625 L 71.59375 -123.75 L 96.125 -175.390625 C 97.320312 -177.773438 99.285156 -178.96875 102.015625 -178.96875 L 128.34375 -178.96875 C 130.394531 -178.96875 131.757812 -178.367188 132.4375 -177.171875 C 133.113281 -175.984375 133.03125 -174.535156 132.1875 -172.828125 Z M 91.78125 -91.53125 "/></g></g></g><g fill="#000000" fill-opacity="1"><g transform="translate(395.485716, 252.634808)"><g><path d="M 115.046875 -200.453125 L 115.046875 -174.875 C 115.046875 -172.144531 113.6875 -170.78125 110.96875 -170.78125 L 47.5625 -170.78125 L 47.5625 -119.40625 L 95.625 -119.40625 C 98.351562 -119.40625 99.71875 -118.039062 99.71875 -115.3125 L 99.71875 -89.734375 C 99.71875 -87.015625 98.351562 -85.65625 95.625 -85.65625 L 47.5625 -85.65625 L 47.5625 -4.09375 C 47.5625 -1.363281 46.195312 0 43.46875 0 L 16.875 0 C 14.144531 0 12.78125 -1.363281 12.78125 -4.09375 L 12.78125 -200.453125 C 12.78125 -203.171875 14.144531 -204.53125 16.875 -204.53125 L 110.96875 -204.53125 C 113.6875 -204.53125 115.046875 -203.171875 115.046875 -200.453125 Z M 115.046875 -200.453125 "/></g></g></g><g fill="#000000" fill-opacity="1"><g transform="translate(543.001709, 252.634808)"><g><path d="M 47.5625 -33.75 L 47.5625 -174.875 C 47.5625 -177.601562 46.195312 -178.96875 43.46875 -178.96875 L 16.875 -178.96875 C 14.144531 -178.96875 12.78125 -177.601562 12.78125 -174.875 L 12.78125 -4.09375 C 12.78125 -1.363281 14.144531 0 16.875 0 L 98.171875 0 C 100.898438 0 102.265625 -1.363281 102.265625 -4.09375 L 102.265625 -29.65625 C 102.265625 -32.382812 100.898438 -33.75 98.171875 -33.75 Z M 47.5625 -33.75 "/></g></g></g><g fill="#000000" fill-opacity="1"><g transform="translate(677.735047, 252.634808)"><g><path d="M 12.78125 -36.8125 L 12.78125 -142.15625 C 12.78125 -154.257812 15.929688 -163.421875 22.234375 -169.640625 C 28.546875 -175.859375 37.664062 -178.96875 49.59375 -178.96875 L 78.234375 -178.96875 C 90.335938 -178.96875 99.5 -175.859375 105.71875 -169.640625 C 111.9375 -163.421875 115.046875 -154.257812 115.046875 -142.15625 L 115.046875 -36.8125 C 115.046875 -24.882812 111.9375 -15.765625 105.71875 -9.453125 C 99.5 -3.148438 90.335938 0 78.234375 0 L 49.59375 0 C 37.664062 0 28.546875 -3.148438 22.234375 -9.453125 C 15.929688 -15.765625 12.78125 -24.882812 12.78125 -36.8125 Z M 56.25 -32.984375 L 72.609375 -32.984375 C 79.429688 -32.984375 82.84375 -36.390625 82.84375 -43.203125 L 82.84375 -135.765625 C 82.84375 -142.578125 79.429688 -145.984375 72.609375 -145.984375 L 56.25 -145.984375 C 49.425781 -145.984375 46.015625 -142.578125 46.015625 -135.765625 L 46.015625 -43.203125 C 46.015625 -36.390625 49.425781 -32.984375 56.25 -32.984375 Z M 56.25 -32.984375 "/></g></g></g><g fill="#000000" fill-opacity="1"><g transform="translate(825.251039, 252.634808)"><g><path d="M 157.5 -178.96875 L 181.53125 -178.96875 C 185.28125 -178.96875 186.898438 -177.175781 186.390625 -173.59375 L 161.84375 -4.609375 C 161.332031 -1.535156 159.457031 0 156.21875 0 L 128.609375 0 C 125.703125 0 123.828125 -1.535156 122.984375 -4.609375 L 99.453125 -109.421875 L 75.671875 -4.609375 C 74.992188 -1.535156 73.117188 0 70.046875 0 L 41.9375 0 C 38.695312 0 36.820312 -1.617188 36.3125 -4.859375 L 12.78125 -173.59375 C 12.269531 -177.175781 13.890625 -178.96875 17.640625 -178.96875 L 41.671875 -178.96875 C 44.742188 -178.96875 46.535156 -177.347656 47.046875 -174.109375 L 59.578125 -67.234375 L 60.84375 -67.234375 L 85.90625 -174.625 C 86.757812 -177.519531 88.632812 -178.96875 91.53125 -178.96875 L 107.125 -178.96875 C 110.019531 -178.96875 111.894531 -177.519531 112.75 -174.625 L 137.8125 -67.234375 L 139.078125 -67.234375 L 152.125 -174.109375 C 152.632812 -177.347656 154.425781 -178.96875 157.5 -178.96875 Z M 157.5 -178.96875 "/></g></g></g></g></g></svg>